<?xml version="1.0" encoding="UTF-8" standalone="no"?>
<!-- Created with Inkscape (http://www.inkscape.org/) -->

<svg
   width="130mm"
   height="145mm"
   viewBox="0 0 130 145"
   version="1.1"
   id="svg1"
   xmlns:inkscape="http://www.inkscape.org/namespaces/inkscape"
   xmlns:sodipodi="http://sodipodi.sourceforge.net/DTD/sodipodi-0.dtd"
   xmlns="http://www.w3.org/2000/svg"
   xmlns:svg="http://www.w3.org/2000/svg">
  <sodipodi:namedview
     id="namedview1"
     pagecolor="#ffffff"
     bordercolor="#000000"
     borderopacity="0.25"
     inkscape:showpageshadow="2"
     inkscape:pageopacity="0.0"
     inkscape:pagecheckerboard="0"
     inkscape:deskcolor="#d1d1d1"
     inkscape:document-units="mm" />
  <defs
     id="defs1" />
  <g
     inkscape:label="Слой 1"
     inkscape:groupmode="layer"
     id="layer1">
    <path
       style="fill:#ffffff;stroke-width:0.264583"
       d="m 60.078502,142.81137 c -2.6908,-1.48026 -3.66197,-2.03748 -5.69856,-3.26964 -0.66341,-0.40137 -7.7446,-4.4743 -9.50288,-5.46584 -0.73426,-0.41406 -1.98986,-1.1465 -2.79023,-1.62764 -1.57647,-0.9477 -9.70656,-5.61921 -11.64166,-6.68925 -0.65484,-0.3621 -1.30969,-0.74648 -1.45521,-0.85417 -0.23454,-0.17358 -6.0571,-3.55396 -8.18516,-4.75204 -0.98613,-0.55518 -4.61897,-2.65444 -9.40963,-5.43742 -1.9645303,-1.14123 -3.9290601,-2.25433 -4.3656301,-2.47356 -1.2541,-0.62977 -3.69787,-3.22841 -4.39277,-4.67115 l -0.63431,-1.31692 V 72.783936 39.314151 l 0.96541,-1.85208 c 0.53098,-1.01865 1.24535,-2.11093 1.5875,-2.42729 0.34215,-0.31636 2.82475,-1.84971 5.5168801,-3.40744 8.39089,-4.85517 18.57677,-10.73097 20.37292,-11.75228 0.94589,-0.53784 4.04151,-2.32424 6.87916,-3.96978 5.15127,-2.98719 7.14852,-4.13561 10.51719,-6.0473904 1.81496,-1.03002 4.87366,-2.80294 9.525,-5.521 1.41883,-0.8291 3.33105,-1.90066 4.24939,-2.38124 l 1.66971,-0.87379 h 2.04963 2.04963 l 1.704622,0.87838 c 2.03676,1.04953 3.17135,1.69411 4.39541,2.49709 0.50082,0.32854 1.58856,0.96182 2.41719,1.40729 0.82864,0.44547 2.69723,1.52025 4.15244,2.3884 1.455208,0.86816 2.824428,1.65196 3.042708,1.74179 0.21828,0.0898 0.57547,0.3087904 0.79375,0.4865904 0.21828,0.1778 1.05172,0.66911 1.85208,1.0918 0.80037,0.42269 1.95886,1.09256 2.57443,1.4886 0.61557,0.39603 1.17902,0.72006 1.25211,0.72006 0.0731,0 0.91099,0.47625 1.862,1.05833 0.95102,0.58209 1.78237,1.05834 1.84744,1.05834 0.0651,0 1.17323,0.63966 2.46255,1.42147 1.28932,0.78181 2.990146,1.78307 3.779616,2.22503 0.789462,0.44196 2.804612,1.60125 4.478102,2.57621 3.03114,1.7659 10.38071,6.02094 16.66875,9.65038 3.74992,2.16444 6.29765,4.42215 7.29839,6.46757 l 0.63911,1.30629 v 33.295525 33.295524 l -0.82113,1.64611 c -1.35558,2.71749 -1.80509,3.08386 -8.02512,6.54089 -0.9164,0.50932 -1.83096,1.05538 -2.03236,1.21345 -0.35694,0.28016 -4.64918,2.74827 -8.01262,4.60738 -0.92145,0.50932 -1.84014,1.06046 -2.04154,1.22475 -0.2014,0.16429 -0.84244,0.55684 -1.42452,0.87232 -1.05757,0.5732 -3.71427,2.08951 -5.38112,3.07127 -0.48575,0.28611 -1.795442,1.04293 -2.910408,1.68183 -1.11497,0.63889 -3.45597,1.99617 -5.20222,3.01619 -1.74625,1.02001 -3.9489,2.29556 -4.89479,2.83455 -0.94589,0.539 -2.79135,1.61397 -4.10104,2.38882 -1.30969,0.77485 -3.15516,1.84747 -4.101038,2.3836 -0.94589,0.53613 -2.55323,1.44725 -3.57188,2.0247 -1.01864,0.57745 -2.98318,1.70471 -4.36562,2.50502 -3.961872,2.29357 -4.086382,2.33866 -6.456802,2.33821 l -2.14216,-5.3e-4 z m -26.14785,-37.97408 1.54873,-1.54873 -0.0697,-8.968449 -0.0697,-8.968465 h -2.51354 -2.51354 l -0.13229,8.069795 -0.13229,8.069799 -2.64583,0.13229 -2.64584,0.13229 -0.0786,1.95961 c -0.0432,1.07779 -0.0172,2.11959 0.0578,2.31511 0.10534,0.27449 0.99197,0.35549 3.89122,0.35549 h 3.7548 z m 23.41382,-0.12696 1.6757,-1.67569 v -7.231949 -7.23194 l -1.6757,-1.6757 -1.67569,-1.675695 h -6.02356 -6.02357 l -1.6273,1.572835 -1.62731,1.57283 v 7.43767 7.437679 l 1.62731,1.57283 1.6273,1.57283 h 6.02357 6.02356 z m -11.43227,-3.41717 c -0.0729,-0.18996 -0.10021,-2.782939 -0.0607,-5.762189 l 0.0718,-5.41682 h 3.70417 3.70417 v 5.68854 5.688549 l -3.64345,0.0736 c -2.80661,0.0567 -3.67389,-0.006 -3.77598,-0.27172 z m 23.162132,1.52099 0.13229,-3.439579 1.80976,-0.0788 c 1.10023,-0.0479 1.95505,0.0418 2.18035,0.2288 0.20383,0.16916 1.23196,1.727119 2.28474,3.462129 1.20655,1.98841 2.11333,3.20455 2.45297,3.2898 0.29636,0.0744 1.4304,0.0997 2.520088,0.0562 l 1.98126,-0.079 0.0799,-1.23792 0.0799,-1.2379 -1.46894,-2.27704 c -0.80791,-1.25237 -1.468928,-2.351419 -1.468928,-2.442329 0,-0.0909 0.654838,-0.85184 1.455198,-1.69094 l 1.45521,-1.52563 v -3.76614 -3.76615 l -1.54922,-1.54922 -1.549218,-1.549225 -7.77734,0.0702 -7.777342,0.0702 -0.0694,10.185735 c -0.0381,5.602149 -0.0104,10.339369 0.0617,10.527169 0.097,0.25278 0.76776,0.32168 2.58289,0.26532 l 2.451872,-0.0761 z m 0.11099,-8.691349 c -0.0753,-0.19634 -0.10137,-1.17861 -0.0578,-2.18281 l 0.0791,-1.82584 3.90261,-0.0732 3.9026,-0.0732 v 2.25604 2.25603 h -3.84476 c -2.98252,0 -3.87548,-0.0801 -3.98175,-0.35698 z m 23.701508,9.352809 0.13229,-2.77812 3.63803,-0.0736 3.638018,-0.0736 v 2.62091 c 0,1.92469 0.0985,2.70262 0.37071,2.92856 0.2373,0.19694 1.21328,0.28001 2.71198,0.23084 l 2.34126,-0.0768 0.0696,-9.018439 0.0696,-9.01845 -1.57128,-1.49874 -1.57128,-1.498755 h -6.031788 -6.0318 l -1.66076,1.646005 -1.66077,1.64601 v 8.76094 c 0,4.818519 0.0834,8.844339 0.18533,8.946269 0.10193,0.10193 1.32232,0.15154 2.71198,0.11024 l 2.52665,-0.0751 z m 0.11641,-8.015779 c -0.0756,-0.19706 -0.10298,-1.48045 -0.0608,-2.85198 l 0.0767,-2.4937 3.64705,-0.0737 3.647048,-0.0737 -0.0752,2.8518 -0.0752,2.85179 -3.511068,0.0739 c -2.76071,0.0581 -3.54045,-0.003 -3.64856,-0.28444 z M 57.192622,76.401646 c 0.64135,-0.33859 1.51779,-1.11495 1.94765,-1.72523 1.412,-2.00468 1.15791,-5.52953 -0.49764,-6.90351 -0.52404,-0.43492 -0.52807,-1.39542 -0.0131,-3.12944 0.71692,-2.41412 1.47469,-2.66815 9.55721,-3.20385 5.082562,-0.33687 6.666632,-1.0403 8.195582,-3.63938 0.35366,-0.6012 0.82192,-2.029949 1.04058,-3.174999 0.21866,-1.14506 0.53015,-2.127226 0.69219,-2.182596 0.70029,-0.23932 2.458448,-2.10248 2.901058,-3.07432 2.03153,-4.46065 -2.609338,-9.2792 -7.121648,-7.3943 -3.88237,1.62176 -4.67138,6.70619 -1.45243,9.35953 l 0.93896,0.77396 -0.18357,1.383756 c -0.24873,1.87506 -0.76372,2.77213 -1.79996,3.135409 -0.47736,0.16736 -2.892002,0.42641 -5.365852,0.57567 -4.45973,0.2691 -6.83685,0.7037 -8.02502,1.4672 -1.25679,0.80759 -1.36802,0.46503 -1.36364,-4.199699 0.002,-2.369276 0.0915,-4.427516 0.19844,-4.573866 0.10691,-0.14635 0.62868,-0.58959 1.15949,-0.98499 2.00983,-1.49712 2.70584,-4.76815 1.47643,-6.9387 -2.26395,-3.99706 -7.79196,-3.91025 -9.81735,0.15417 -1.22688,2.46205 -0.8244,4.45005 1.31425,6.49149 l 1.43136,1.3663 v 8.189685 8.18969 l -1.02582,0.67885 c -1.1626,0.76937 -2.41464,2.98667 -2.41229,4.27206 0.004,2.13117 1.24343,4.16977 3.14715,5.17596 1.38009,0.72944 3.60166,0.69056 5.07799,-0.0889 z m -3.56145,-4.17725 c -0.6277,-0.89617 -0.0849,-1.8096 1.08021,-1.81765 0.87552,-0.006 1.27862,0.92611 0.74962,1.73348 -0.51923,0.79243 -1.30832,0.82874 -1.82983,0.0842 z M 75.319914,48.098501 c -0.31278,-0.22871 -0.4404,-0.60508 -0.3813,-1.12448 l 0.0889,-0.7807 h 0.92604 0.92604 l 0.0888,0.7807 c 0.08,0.7032 -0.4488,1.46826 -1.01489,1.46826 -0.0899,0 -0.37501,-0.1547 -0.63359,-0.34378 z m -21.538492,-2.61956 c -0.45997,-0.45996 -0.39344,-1.71341 0.10101,-1.90315 1.36578,-0.5241 2.32643,0.43556 1.57857,1.57694 -0.45551,0.69519 -1.17153,0.83426 -1.67958,0.32621 z"
       id="path1" />
  </g>
</svg>
